<?xml version="1.0" encoding="UTF-8" standalone="no"?><!DOCTYPE svg PUBLIC "-//W3C//DTD SVG 1.1//EN" "http://www.w3.org/Graphics/SVG/1.1/DTD/svg11.dtd"><svg width="100%" height="100%" viewBox="0 0 1280 800" version="1.1" xmlns="http://www.w3.org/2000/svg" xmlns:xlink="http://www.w3.org/1999/xlink" xml:space="preserve" style="fill-rule:evenodd;clip-rule:evenodd;stroke-linejoin:round;stroke-miterlimit:1.41421;"><g><rect x="0" y="0" width="1280" height="800" style="fill:#3e4651;"/><clipPath id="_clip1"><rect x="0" y="0" width="1280" height="800"/></clipPath><g clip-path="url(#_clip1)"><g id="MOUNTS"><g id="mount"><path d="M1026.84,237.485l255.901,592.429l-511.802,0l255.901,-592.429Z" style="fill:#6286b3;"/><clipPath id="_clip2"><path d="M1026.84,237.485l255.901,592.429l-511.802,0l255.901,-592.429Z"/></clipPath><g clip-path="url(#_clip2)"><rect x="696.038" y="237.485" width="330.799" height="731.461" style="fill:#000;fill-opacity:0.301961;"/><path d="M1026.84,237.485l95.429,592.429l-190.858,0l95.429,-592.429Z" style="fill:#52769c;"/></g><path d="M963.437,383.366l49.932,-63.694l27.594,5.479l15.111,-20.547l-29.237,-67.119l-63.4,145.881Z" style="fill:#f6f7f2;"/><clipPath id="_clip3"><path d="M963.437,383.366l49.932,-63.694l27.594,5.479l15.111,-20.547l-29.237,-67.119l-63.4,145.881Z"/></clipPath><g clip-path="url(#_clip3)"><rect x="963.437" y="229.951" width="63.4" height="153.415" style="fill:#ccc;"/><path d="M1026.84,237.485l95.429,592.429l-190.858,0l95.429,-592.429Z" style="fill:#e6e6e6;"/></g></g><g id="mount1"><path d="M748.277,479.107l182.368,422.194l-364.736,0l182.368,-422.194Z" style="fill:#6286b3;"/><clipPath id="_clip4"><path d="M748.277,479.107l182.368,422.194l-364.736,0l182.368,-422.194Z"/></clipPath><g clip-path="url(#_clip4)"><rect x="512.533" y="479.107" width="235.744" height="521.276" style="fill:#000;fill-opacity:0.298039;"/><path d="M748.277,479.107l68.008,422.194l-136.015,0l68.007,-422.194Z" style="fill:#52769c;"/></g><path d="M713.504,558.237l18.535,20.094l28.803,-20.094l8.27,-31.298l-20.835,-47.832l-34.773,79.13Z" style="fill:#f6f7f2;"/><clipPath id="_clip5"><path d="M713.504,558.237l18.535,20.094l28.803,-20.094l8.27,-31.298l-20.835,-47.832l-34.773,79.13Z"/></clipPath><g clip-path="url(#_clip5)"><rect x="703.095" y="473.738" width="45.182" height="109.331" style="fill:#ccc;"/><path d="M748.277,479.107l68.008,422.194l-136.015,0l68.007,-422.194Z" style="fill:#e6e6e6;"/></g></g><g id="mount2"><path d="M919.857,357.135l255.755,592.09l-511.51,0l255.755,-592.09Z" style="fill:#6286b3;"/><clipPath id="_clip6"><path d="M919.857,357.135l255.755,592.09l-511.51,0l255.755,-592.09Z"/></clipPath><g clip-path="url(#_clip6)"><rect x="589.247" y="357.135" width="330.61" height="731.044" style="fill:#000;fill-opacity:0.298039;"/><path d="M919.857,357.135l95.375,592.09l-190.749,0l95.374,-592.09Z" style="fill:#52769c;"/></g><path d="M890.944,423.145l17.083,10.745l20.656,-23.639l19.774,12.894l-28.6,-66.01l-28.913,66.01Z" style="fill:#f6f7f2;"/><clipPath id="_clip7"><path d="M890.944,423.145l17.083,10.745l20.656,-23.639l19.774,12.894l-28.6,-66.01l-28.913,66.01Z"/></clipPath><g clip-path="url(#_clip7)"><rect x="856.493" y="349.605" width="63.364" height="153.328" style="fill:#ccc;"/><path d="M919.857,357.135l95.375,592.09l-190.749,0l95.374,-592.09Z" style="fill:#e6e6e6;"/></g></g></g><g id="MOON"><circle cx="110.883" cy="130.454" r="494.631" style="fill:#4f6f70;fill-opacity:0.521569;"/><circle cx="107.865" cy="128.853" r="433.057" style="fill:#4f6f70;fill-opacity:0.941177;"/><circle cx="107.865" cy="135.458" r="367.946" style="fill:#5b8c85;fill-opacity:0.941177;"/><circle cx="107.865" cy="135.458" r="304.023" style="fill:#5dad9a;fill-opacity:0.941177;"/><circle cx="107.865" cy="135.458" r="238.398" style="fill:#5ec6ab;"/><clipPath id="_clip8"><circle cx="107.865" cy="135.458" r="238.398"/></clipPath><g clip-path="url(#_clip8)"><rect x="2.018" y="39.763" width="341.969" height="24.741" style="fill:#6295b8;fill-opacity:0.972549;"/><rect x="-20.616" y="249.957" width="341.969" height="38.125" style="fill:#6295b8;fill-opacity:0.941177;"/><rect x="-30.613" y="335.43" width="277.475" height="13.347" style="fill:#6464b8;fill-opacity:0.65098;"/><rect x="-15.865" y="149.482" width="373.351" height="17.706" style="fill:#6380b8;fill-opacity:0.635294;"/></g></g></g></g></svg>